<svg width="77" height="99" viewBox="0 0 77 99" fill="none" xmlns="http://www.w3.org/2000/svg">
<path d="M16.0881 96.8499L16.6393 98.0922L17.792 97.3606C33.4364 87.4309 66.1358 66.792 72.0964 63.4669C75.7699 61.4176 77.0374 58.9186 76.9992 56.656C76.9809 55.5756 76.6628 54.6323 76.2779 53.921C76.0851 53.5647 75.868 53.2523 75.6473 52.999C75.4645 52.7891 75.2257 52.5577 74.9455 52.3987L51.5749 36.6284L40.6101 44.7145L41.6899 45.663C44.4732 48.1078 51.2399 53.152 54.4701 55.2876C55.7615 56.1414 56.0081 56.7661 56.0362 56.9992C56.0547 57.1533 55.9977 57.3328 55.7124 57.4937C49.7269 60.8691 40.439 66.2838 32.3826 71.4414C28.3566 74.0188 24.6196 76.5437 21.7513 78.7247C20.3183 79.8144 19.0836 80.8322 18.1322 81.7386C17.2134 82.614 16.4457 83.4889 16.0881 84.2949C13.8486 89.3424 15.1497 94.7349 16.0881 96.8499Z" fill="#1A3B54"/>
<path d="M60.9113 1.33485L60.3601 0.0925293L59.2074 0.82417C43.5631 10.7539 10.8636 31.3928 4.90309 34.7179C1.22956 36.7672 -0.0379429 39.2662 0.000286738 41.5288C0.018542 42.6092 0.336683 43.5524 0.721529 44.2637C0.914324 44.6201 1.13146 44.9325 1.35215 45.1858C1.535 45.3956 1.77381 45.6271 2.054 45.7861L25.4245 61.5564L36.3894 53.4703L35.3095 52.5218C32.5263 50.077 25.7595 45.0328 22.5294 42.8972C21.238 42.0433 20.9913 41.4187 20.9633 41.1855C20.9448 41.0315 21.0018 40.852 21.287 40.6911C27.2726 37.3157 36.5604 31.901 44.6169 26.7434C48.6429 24.166 52.3798 21.6411 55.2481 19.46C56.6811 18.3704 57.9159 17.3525 58.8673 16.4461C59.786 15.5708 60.5537 14.6958 60.9113 13.8899C63.1508 8.84236 61.8497 3.44986 60.9113 1.33485Z" fill="#4FA6A9"/>
</svg>
